<?xml version="1.0" standalone="no"?><!DOCTYPE svg PUBLIC "-//W3C//DTD SVG 1.1//EN" "http://www.w3.org/Graphics/SVG/1.1/DTD/svg11.dtd"><svg t="1605593820089" class="icon" viewBox="0 0 1072 1024" version="1.1" xmlns="http://www.w3.org/2000/svg" p-id="4687" xmlns:xlink="http://www.w3.org/1999/xlink" width="209.375" height="200"><defs><style type="text/css"></style></defs><path d="M1045.942857 108.397714a36.571429 36.571429 0 0 0-43.885714-27.355428l-190.659048 44.178285a36.571429 36.571429 0 0 0-18.090666 61.049905l41.642666 43.008-222.354285 198.412191-115.468191-109.372953a36.571429 36.571429 0 0 0-51.638857 1.316572l-247.710476 259.754666A73.142857 73.142857 0 1 0 256 650.971429c0-7.94819-1.560381-15.408762-3.900952-22.528l221.184-231.911619 113.371428 107.373714a36.571429 36.571429 0 0 0 49.493334 0.682666l249.61219-222.646857 47.445333 49.152a36.571429 36.571429 0 0 0 61.586286-15.945143l50.809905-189.001142a36.376381 36.376381 0 0 0 0.341333-17.749334z" p-id="4688"></path><path d="M987.428571 441.685333a36.571429 36.571429 0 0 0-36.571428 36.571429v289.743238a36.571429 36.571429 0 0 1-36.571429 36.571429H109.714286a36.571429 36.571429 0 0 1-36.571429-36.571429V109.714286a36.571429 36.571429 0 0 1 36.571429-36.571429h606.451809a36.571429 36.571429 0 1 0 0-73.142857H109.714286A109.714286 109.714286 0 0 0 0 109.714286v658.285714A109.714286 109.714286 0 0 0 109.714286 877.714286h804.571428A109.714286 109.714286 0 0 0 1024 768V478.256762a36.571429 36.571429 0 0 0-36.571429-36.571429zM969.142857 950.857143H54.857143a36.571429 36.571429 0 1 0 0 73.142857h914.285714a36.571429 36.571429 0 1 0 0-73.142857z" p-id="4689"></path></svg>