<?xml version="1.0" standalone="no"?><!DOCTYPE svg PUBLIC "-//W3C//DTD SVG 1.1//EN" "http://www.w3.org/Graphics/SVG/1.1/DTD/svg11.dtd"><svg class="icon" width="200px" height="199.80px" viewBox="0 0 1025 1024" version="1.1" xmlns="http://www.w3.org/2000/svg"><path fill="#000000" d="M765.424796 949.226752c0 40.243148-28.477922 72.901241-63.7736 72.901241H64.72246c-35.295678 0-63.7736-32.658094-63.7736-72.901241C0.940867 803.416277 124.092092 667.149062 249.928858 613.438248c-72.725402-51.392937-121.61663-142.773256-121.61663-247.669199v-72.95719c0-161.132444 114.239386-291.876716 254.910567-291.876715s254.91856 130.744272 254.91856 291.876715v72.909234c0 104.999847-48.939184 196.268269-121.61663 247.717155 125.78881 53.758771 248.900071 189.978029 248.900071 335.788504z"  /><path fill="#000000" d="M848.420793 945.150484h126.819865c26.98329 0 48.763345-24.977127 48.763346-55.72497 0-111.553845-94.209728-215.674497-190.377663-256.748884 55.589095-39.315997 93.018819-109.180019 93.018818-189.458504v-55.828875c0-123.215166-87.344015-223.203603-194.941483-223.203603-13.379748 0-26.423803 1.542587-39.084209 4.483894 15.47383 37.669504 24.121911 79.718998 24.121911 124.094361v72.901241c0 104.999847-24.425632 184.718845-88.447006 247.717155 118.627368 35.247722 218.296097 187.188583 220.126421 331.768185z"  /></svg>