<?xml version="1.0" standalone="no"?><!DOCTYPE svg PUBLIC "-//W3C//DTD SVG 1.1//EN" "http://www.w3.org/Graphics/SVG/1.1/DTD/svg11.dtd"><svg class="icon" width="200px" height="200.00px" viewBox="0 0 1024 1024" version="1.1" xmlns="http://www.w3.org/2000/svg"><path fill="#000000" d="M0 167.736v476.72c0 92.72 68.296 167.728 152.6 167.728h228.904l8 211.816L614.4 812.184h257c84.304 0 152.6-75.016 152.6-167.728v-476.72C1024 75.016 955.704 0 871.4 0h-718.8C68.304 0 0 75.016 0 167.736z m658.6 264.8c0-44.192 32.104-79.48 72.296-79.48 40.208 0 72.304 35.28 72.304 79.472 0 44.192-32.2 79.472-72.304 79.472-40.192 0-72.296-35.28-72.296-79.472z m-220.904 0c0-44.192 32.104-79.48 72.304-79.48s72.296 35.28 72.296 79.472c0 44.192-32.2 79.472-72.296 79.472-40.2 0-72.304-35.28-72.304-79.472z m-216.8 0c0-44.192 32.104-79.48 72.304-79.48s72.304 35.28 72.304 79.472c0 44.192-32.208 79.472-72.4 79.472-40.104 0-72.2-35.28-72.2-79.472z" /></svg>