<?xml version="1.0" standalone="no"?><!DOCTYPE svg PUBLIC "-//W3C//DTD SVG 1.1//EN" "http://www.w3.org/Graphics/SVG/1.1/DTD/svg11.dtd"><svg class="icon" width="200px" height="200.00px" viewBox="0 0 1024 1024" version="1.1" xmlns="http://www.w3.org/2000/svg"><path fill="#000000" d="M879.979 120.128H490.453L257.792 11.541c-12.8-5.952-26.304-9.002-40.17-9.002-52.331 0-94.955 42.645-94.955 95.061v24.256C53.376 132.246 0 191.979 0 264.128V877.44c0 79.445 64.619 144.021 144.021 144.021H879.98c79.445 0 144.021-64.576 144.021-144.021V264.128c0-79.424-64.576-144.021-144.021-144zM165.397 97.6c0-32.32 27.136-52.33 52.224-52.33 7.574 0 14.998 1.685 22.102 4.991L490.645 167.36v774.677L195.541 804.352c-18.304-8.619-30.144-27.136-30.144-47.403V97.6zM42.731 877.44V264.107c0-48.534 34.325-89.088 79.936-98.923v591.787c0 36.757 21.482 70.549 54.784 86.08l290.816 135.658H144.02c-55.872 0-101.29-45.44-101.29-101.269z m938.538 0c0 55.85-45.44 101.29-101.29 101.29H532.97c0.149-1.066 0.405-2.111 0.405-3.178V162.837h346.603c55.85 0 101.29 45.44 101.29 101.291V877.44z" /></svg>