<?xml version="1.0" standalone="no"?><!DOCTYPE svg PUBLIC "-//W3C//DTD SVG 1.1//EN" "http://www.w3.org/Graphics/SVG/1.1/DTD/svg11.dtd"><svg t="1605950555291" class="icon" viewBox="0 0 1024 1024" version="1.1" xmlns="http://www.w3.org/2000/svg" p-id="15362" xmlns:xlink="http://www.w3.org/1999/xlink" width="200" height="200"><defs><style type="text/css"></style></defs><path d="M947.2 422.4l-12.8-212.8c-3.2-64-56-116.8-120-120L601.6 76.8c-36.8-1.6-72 11.2-97.6 36.8L113.6 502.4c-49.6 51.2-49.6 131.2 0 180.8l225.6 225.6c49.6 49.6 131.2 49.6 180.8 0L908.8 520c27.2-25.6 41.6-60.8 38.4-97.6z m-81.6 52.8L475.2 865.6c-25.6 25.6-65.6 25.6-91.2 0L158.4 638.4c-25.6-25.6-25.6-65.6 0-91.2l390.4-388.8c12.8-12.8 30.4-19.2 49.6-19.2L812.8 152c32 1.6 57.6 27.2 60.8 60.8l12.8 212.8c-1.6 19.2-8 36.8-20.8 49.6z" p-id="15363"></path><path d="M550.4 292.8c-49.6 49.6-49.6 131.2 0 180.8s131.2 49.6 180.8 0 49.6-131.2 0-180.8-131.2-49.6-180.8 0z m134.4 136c-25.6 25.6-65.6 25.6-91.2 0-25.6-25.6-25.6-65.6 0-91.2 25.6-25.6 65.6-25.6 91.2 0 25.6 25.6 25.6 65.6 0 91.2z" p-id="15364"></path></svg>