<?xml version="1.0" standalone="no"?><!DOCTYPE svg PUBLIC "-//W3C//DTD SVG 1.1//EN" "http://www.w3.org/Graphics/SVG/1.1/DTD/svg11.dtd"><svg class="icon" width="200px" height="185.17px" viewBox="0 0 1106 1024" version="1.1" xmlns="http://www.w3.org/2000/svg"><path fill="#000000" d="M479.733 252.246c16.896 0 31.479 12.597 35.463 30.631l2.404 10.39a273.924 273.924 0 0 1 4.022 46.606c0 38.308-3.65 67.83-11.162 90.252l-19.65 58.657 61.863 0.26c59.706 0.252 150.511 0.68 159.262 0.847 15.642 0.667 21.805 6.008 27.133 14.95 5.44 9.158 6.368 18.307 6.087 24.738-4.057 25.169-54.148 251.03-62.555 285.048-3.1 5.37-7.282 9.893-12.164 13.148-8.42 5.575-8.973 5.575-12.8 5.575l-362.389 0.02 0.503-328.746c87.597-27.397 151.325-108.454 153.847-202.452l0.067-2.458-0.135-1.628 0.021-0.96 0.063-3.843c0.01-19.766 9.435-41.035 30.119-41.035M179.284 514.857v318.684h-60.088V514.857h60.088M479.732 207.53c-44.893 0-74.827 38.912-74.827 85.747 0 2.639-0.21 5.164 0 7.69-2.35 87.58-71.518 157.986-153.809 167.643l-0.63 409.473h8.034c-0.012-0.013 0.084-0.021 0.373-0.021 0.303 0 0.395 0.008 0.382 0.02l398.386-0.02h0.252c15.038 0 23.53-3.94 37.225-13.005 13.054-8.703 22.929-20.609 29.363-34.065 1.783-2.702 63.628-280.561 65.21-297.052 1.238-17.584-2.58-35.773-12.178-51.932-15.135-25.404-37.12-35.668-63.72-36.793-1.38-0.214-160.93-0.885-160.93-0.885 10.562-31.54 13.477-69.131 13.477-104.456a318.725 318.725 0 0 0-7.085-66.69l-0.395 0.042c-8.318-37.632-40.555-65.696-79.127-65.696zM192.557 470.144h-86.636c-17.374 0-31.44 14.514-31.44 32.406v343.303c0 17.886 14.066 32.405 31.44 32.405h86.636c17.376 0 31.441-14.515 31.441-32.405v-343.3c0-17.895-14.061-32.408-31.44-32.408z m66.708 407.938h-0.755c0.008 0.013 0.075 0.025 0.159 0.042-0.063 0.025-0.06 0.034 0 0.034a2.853 2.853 0 0 0 0.214-0.013 3.356 3.356 0 0 0 0.226 0.013c0.068 0 0.076-0.013 0-0.034a0.654 0.654 0 0 0 0.156-0.042z m647.044-761.04a13.171 13.171 0 0 0-9.425-8.734l-91.24-22.11L756.42 6.26a13.18 13.18 0 0 0-22.434 0l-49.222 79.937-91.238 22.115a13.171 13.171 0 0 0-6.934 21.34l60.812 71.518-7.164 93.604a13.19 13.19 0 0 0 18.155 13.19l86.809-35.742 86.808 35.74a13.197 13.197 0 0 0 12.757-1.527 13.163 13.163 0 0 0 5.39-11.661l-7.16-93.604 60.812-71.518a13.171 13.171 0 0 0 2.496-12.61z" /></svg>