<?xml version="1.0" standalone="no"?><!DOCTYPE svg PUBLIC "-//W3C//DTD SVG 1.1//EN" "http://www.w3.org/Graphics/SVG/1.1/DTD/svg11.dtd"><svg t="1605950509092" class="icon" viewBox="0 0 1025 1024" version="1.1" xmlns="http://www.w3.org/2000/svg" p-id="13864" xmlns:xlink="http://www.w3.org/1999/xlink" width="200.1953125" height="200"><defs><style type="text/css"></style></defs><path d="M512.001 895.996c-32.743 0-64.664-2.956-95.7-8.094L191.999 1024V797.421C75.051 715.311 0 589.403 0 448.003 0 200.575 229.233 0 512.001 0c282.77 0 512.001 200.575 512.001 448.003 0 247.421-229.229 447.993-512.001 447.993z m0-831.992c-247.423 0-448 171.922-448 383.999 0 130.116 75.695 244.92 191.205 314.369l-2.02 148.433 150.64-90.547c34.703 7.388 70.803 11.744 108.173 11.744 247.425 0 448-171.922 448-384S759.428 64.005 512.002 64.005z m224 351.997h-448c-17.673 0-32-14.326-32-31.998S270.328 352 288 352h448c17.673 0 32.003 14.33 32.003 32.002S753.674 416 736 416z m-384 128.004h320c17.673 0 32 14.32 32 31.998 0 17.668-14.327 31.992-32 31.992h-320c-17.675 0-32-14.324-32-31.992 0-17.678 14.325-31.998 32-31.998z" p-id="13865"></path></svg>