<?xml version="1.0" standalone="no"?><!DOCTYPE svg PUBLIC "-//W3C//DTD SVG 1.1//EN" "http://www.w3.org/Graphics/SVG/1.1/DTD/svg11.dtd"><svg t="1605792643171" class="icon" viewBox="0 0 1024 1024" version="1.1" xmlns="http://www.w3.org/2000/svg" p-id="5685" xmlns:xlink="http://www.w3.org/1999/xlink" width="200" height="200"><defs><style type="text/css"></style></defs><path d="M511 3.1C139 3.1 0 328 0 510s132.9 511 500.8 511c0 0 92 2 92-79.7s-40.9-55.2-40.9-114.5 40.9-85.8 61.3-85.8 149.2 10.2 222.8-18.4c71.5-28.6 188-116.5 188-267.8C1022 321.9 883 3.1 511 3.1zM200.3 512c-49.1 0-87.9-38.8-87.9-87.9s38.8-87.9 87.9-87.9 87.9 38.8 87.9 87.9-38.8 87.9-87.9 87.9z m165.6-218.7c-49.1 0-87.9-38.8-87.9-87.9s38.8-87.9 87.9-87.9 87.9 38.8 87.9 87.9c2 47-38.9 87.9-87.9 87.9z m286.1 0c-49.1 0-87.9-38.8-87.9-87.9s38.8-87.9 87.9-87.9c49.1 0 87.9 38.8 87.9 87.9 0 47-38.8 87.9-87.9 87.9zM819.6 512c-49.1 0-87.9-38.8-87.9-87.9s38.8-87.9 87.9-87.9c49.1 0 87.9 38.8 87.9 87.9 2 49.1-38.8 87.9-87.9 87.9z" p-id="5686"></path></svg>