<?xml version="1.0" standalone="no"?><!DOCTYPE svg PUBLIC "-//W3C//DTD SVG 1.1//EN" "http://www.w3.org/Graphics/SVG/1.1/DTD/svg11.dtd"><svg t="1605950572816" class="icon" viewBox="0 0 1072 1024" version="1.1" xmlns="http://www.w3.org/2000/svg" p-id="15771" xmlns:xlink="http://www.w3.org/1999/xlink" width="209.375" height="200"><defs><style type="text/css"></style></defs><path d="M1045.943 108.398a36.571 36.571 0 0 0-43.886-27.356l-190.659 44.179a36.571 36.571 0 0 0-18.09 61.05l41.642 43.007-222.354 198.413-115.468-109.373a36.571 36.571 0 0 0-51.64 1.316L197.779 579.39A73.143 73.143 0 1 0 256 650.971c0-7.948-1.56-15.408-3.901-22.528l221.184-231.911 113.371 107.374a36.571 36.571 0 0 0 49.494 0.682L885.76 281.941l47.445 49.152a36.571 36.571 0 0 0 61.587-15.945l50.81-189.001a36.376 36.376 0 0 0 0.34-17.75z" p-id="15772"></path><path d="M987.429 441.685a36.571 36.571 0 0 0-36.572 36.572V768a36.571 36.571 0 0 1-36.571 36.571H109.714A36.571 36.571 0 0 1 73.143 768V109.714a36.571 36.571 0 0 1 36.571-36.571h606.452a36.571 36.571 0 1 0 0-73.143H109.714A109.714 109.714 0 0 0 0 109.714V768a109.714 109.714 0 0 0 109.714 109.714h804.572A109.714 109.714 0 0 0 1024 768V478.257a36.571 36.571 0 0 0-36.571-36.572z m-18.286 509.172H54.857a36.571 36.571 0 1 0 0 73.143h914.286a36.571 36.571 0 1 0 0-73.143z" p-id="15773"></path></svg>