<?xml version="1.0" standalone="no"?><!DOCTYPE svg PUBLIC "-//W3C//DTD SVG 1.1//EN" "http://www.w3.org/Graphics/SVG/1.1/DTD/svg11.dtd"><svg t="1605791984474" class="icon" viewBox="0 0 1024 1024" version="1.1" xmlns="http://www.w3.org/2000/svg" p-id="2783" xmlns:xlink="http://www.w3.org/1999/xlink" width="200" height="200"><defs><style type="text/css"></style></defs><path d="M79.274667 588.245333c101.226667 86.528 201.813333 84.181333 314.922666-8.213333 220.885333-180.394667 378.410667-228.992 550.528-119.381333V183.786667a19.754667 19.754667 0 0 0-19.84-19.690667H99.114667a19.754667 19.754667 0 0 0-19.818667 19.690667v404.48z m0 97.557334v154.410666c0 10.88 8.874667 19.690667 19.84 19.690667h825.792a19.754667 19.754667 0 0 0 19.818666-19.690667V557.717333c-156.693333-124.629333-284.330667-93.141333-500.202666 83.178667-123.904 101.184-248.576 116.416-365.226667 44.906667zM99.114667 85.333333h825.792C979.626667 85.333333 1024 129.408 1024 183.786667v656.426666C1024 894.592 979.626667 938.666667 924.906667 938.666667H99.093333C44.373333 938.666667 0 894.592 0 840.213333V183.786667C0 129.408 44.373333 85.333333 99.093333 85.333333z m198.186666 429.952c-74.816 0-135.445333-60.245333-135.445333-134.570666 0-74.304 60.629333-134.570667 135.424-134.570667 74.816 0 135.445333 60.266667 135.445333 134.570667 0 74.325333-60.629333 134.570667-135.445333 134.570666z m0-72.213333a62.570667 62.570667 0 0 0 62.741334-62.357333 62.570667 62.570667 0 0 0-62.762667-62.357334 62.570667 62.570667 0 0 0-62.741333 62.357334 62.570667 62.570667 0 0 0 62.741333 62.357333z" p-id="2784"></path></svg>