<?xml version="1.0" standalone="no"?><!DOCTYPE svg PUBLIC "-//W3C//DTD SVG 1.1//EN" "http://www.w3.org/Graphics/SVG/1.1/DTD/svg11.dtd"><svg t="1605950517648" class="icon" viewBox="0 0 1024 1024" version="1.1" xmlns="http://www.w3.org/2000/svg" p-id="14136" xmlns:xlink="http://www.w3.org/1999/xlink" width="200" height="200"><defs><style type="text/css"></style></defs><path d="M939.516933 410.236936H666.879976C772.478959 19.839997 591.998988 0 591.998988 0c-73.598989 0-58.239991 59.519991-63.99999 69.759989 0 191.99797-202.877968 340.476947-202.877969 340.476947v541.436915c0 53.119992 74.879988 72.319989 101.759984 72.319989h409.596936c38.399994 0 69.759989-101.119984 69.759989-101.119984 101.118984-344.957946 101.118984-447.99693 101.118985-447.99693a63.99999 63.99999 0 0 0-68.47999-63.99999z m-725.754886 0H49.922072a33.279995 33.279995 0 0 0-33.918995 33.279995l33.919995 545.916914a33.919995 33.919995 0 0 0 34.559995 34.559995h141.438978c29.439995 0 29.439995-23.039996 29.439995-23.039996V451.836929a40.319994 40.319994 0 0 0-41.599993-41.599993z" p-id="14137"></path></svg>