<?xml version="1.0" standalone="no"?><!DOCTYPE svg PUBLIC "-//W3C//DTD SVG 1.1//EN" "http://www.w3.org/Graphics/SVG/1.1/DTD/svg11.dtd"><svg t="1605959728038" class="icon" viewBox="0 0 1024 1024" version="1.1" xmlns="http://www.w3.org/2000/svg" p-id="22168" xmlns:xlink="http://www.w3.org/1999/xlink" width="200" height="200"><defs><style type="text/css"></style></defs><path d="M939.69 916.76c0 17.097-13.963 31.03-31.03 31.03H99.918c-17.13 0-31.03-13.933-31.03-31.03V109.97c0-17.066 13.9-31.03 31.03-31.03h808.711c17.067 0 31.03 13.964 31.03 31.03V916.76zM908.66 16.88H99.918c-51.356 0-93.091 41.767-93.091 93.091V916.76c0 51.324 41.735 93.091 93.09 93.091H908.63c51.324 0 93.091-41.767 93.091-93.09V109.97c0-51.324-41.767-93.09-93.09-93.09z" p-id="22169"></path><path d="M321.008 255.441a73.759 73.759 0 0 1 73.697 73.697 73.759 73.759 0 0 1-73.697 73.697 73.759 73.759 0 0 1-73.696-73.697 73.759 73.759 0 0 1 73.696-73.697m0 209.455a135.913 135.913 0 0 0 135.758-135.758 135.913 135.913 0 0 0-135.758-135.757 135.913 135.913 0 0 0-135.757 135.757 135.913 135.913 0 0 0 135.757 135.758m545.917 215.97l-121.701-121.7-0.155 0.155a30.596 30.596 0 0 0-43.288-0.155l-0.217-0.217-283.151 277.318 0.217 0.217a30.751 30.751 0 1 0 43.008 43.908l0.217 0.217 261.213-255.845 99.98 99.98 0.186-0.155a30.782 30.782 0 0 0 43.535-43.567l0.156-0.155z m-455.246 80.99a30.782 30.782 0 0 0 21.752-52.565l0.186-0.155-90.67-90.671-0.155 0.155a30.565 30.565 0 0 0-43.07-0.31l-0.249-0.248-159.03 153.196 0.528 0.559a30.844 30.844 0 0 0 21.752 52.596 30.565 30.565 0 0 0 22.466-10.054l135.416-130.482 69.136 69.135 0.155-0.186a30.72 30.72 0 0 0 21.783 9.03" p-id="22170"></path></svg>