<?xml version="1.0" standalone="no"?><!DOCTYPE svg PUBLIC "-//W3C//DTD SVG 1.1//EN" "http://www.w3.org/Graphics/SVG/1.1/DTD/svg11.dtd"><svg t="1605950637216" class="icon" viewBox="0 0 1024 1024" version="1.1" xmlns="http://www.w3.org/2000/svg" p-id="16588" xmlns:xlink="http://www.w3.org/1999/xlink" width="200" height="200"><defs><style type="text/css"></style></defs><path d="M54 326.6L645.6 326.6c28.8 0 52 25 52 55.6s-23.2 55.6-52 55.6L54 437.8c-28.8 0-52-25-52-55.6s23.2-55.6 52-55.6z m0 259.6L645.6 586.2c28.8 0 52 25 52 55.6s-23.2 55.6-52 55.6L54 697.4c-28.8 0-52-25-52-55.6s23.2-55.6 52-55.6z m3.6 250.4L966.4 836.6C997 836.6 1022 861.6 1022 892.2s-25 55.59999999-55.6 55.6l-908.8 0c-30.59999999 0-55.59999999-25-55.6-55.6s25-55.59999999 55.6-55.6z m704.8-510L1022.00000001 512l-259.60000001 185.4 0-370.8z m204-139.2l-908.8 0c-30.59999999 0-55.59999999-25-55.6-55.6s25-55.59999999 55.6-55.6L966.4 76.2C997 76.19999999 1022 101.19999999 1022 131.8s-25 55.59999999-55.6 55.6z m0 0" p-id="16589"></path></svg>